<svg width="59" height="59" viewBox="0 0 59 59" fill="none" xmlns="http://www.w3.org/2000/svg">
<path d="M22.125 36.8749L36.875 22.1249M9.80631 36.0391L6.06964 32.3024C4.54547 30.7782 4.54547 28.2707 6.06964 26.7466L9.80631 23.0099C10.4455 22.3707 10.9617 21.117 10.9617 20.232V14.9466C10.9617 12.7832 12.7317 11.0132 14.8951 11.0132H20.1805C21.0655 11.0132 22.3192 10.497 22.9584 9.85782L26.6951 6.12115C28.2192 4.59699 30.7267 4.59699 32.2509 6.12115L35.9876 9.85782C36.6267 10.497 37.8805 11.0132 38.7655 11.0132H44.0509C46.2142 11.0132 47.9842 12.7832 47.9842 14.9466V20.232C47.9842 21.117 48.5005 22.3707 49.1396 23.0099L52.8763 26.7466C54.4005 28.2707 54.4005 30.7782 52.8763 32.3024L49.1396 36.0391C48.5005 36.6782 47.9842 37.932 47.9842 38.817V44.1024C47.9842 46.2657 46.2142 48.0357 44.0509 48.0357H38.7655C37.8805 48.0357 36.6267 48.552 35.9876 49.1912L32.2509 52.9278C30.7267 54.452 28.2192 54.452 26.6951 52.9278L22.9584 49.1912C22.3192 48.552 21.0655 48.0357 20.1805 48.0357H14.8951C12.7317 48.0357 10.9617 46.2657 10.9617 44.1024V38.817C10.9617 37.9074 10.4455 36.6537 9.80631 36.0391Z" stroke="#958DFF" stroke-width="1.5" stroke-linecap="round" stroke-linejoin="round"/>
<path d="M35.6335 35.6459H35.6556M23.3419 23.3542H23.3615" stroke="#958DFF" stroke-width="2" stroke-linecap="round" stroke-linejoin="round"/>
</svg>
